<svg width="196" height="140" viewBox="0 0 196 140" fill="none" xmlns="http://www.w3.org/2000/svg">
<path d="M163.333 123C172.317 123 179.585 115.65 179.585 106.667L179.667 16.8333C179.667 7.85 172.317 0.5 163.333 0.5H32.6667C23.6833 0.5 16.3333 7.85 16.3333 16.8333V106.667C16.3333 115.65 23.6833 123 32.6667 123H0C0 131.983 7.35 139.333 16.3333 139.333H179.667C188.65 139.333 196 131.983 196 123H163.333ZM32.6667 16.8333H163.333V106.667H32.6667V16.8333ZM98 131.167C93.5083 131.167 89.8333 127.492 89.8333 123C89.8333 118.508 93.5083 114.833 98 114.833C102.492 114.833 106.167 118.508 106.167 123C106.167 127.492 102.492 131.167 98 131.167Z" fill="#F2CC8F"/>
</svg>
