<svg width="107" height="180" viewBox="0 0 107 180" fill="none" xmlns="http://www.w3.org/2000/svg">
<path d="M86.5832 0.166748H21.2499C9.97992 0.166748 0.833252 9.31342 0.833252 20.5834V159.417C0.833252 170.687 9.97992 179.833 21.2499 179.833H86.5832C97.8532 179.833 107 170.687 107 159.417V20.5834C107 9.31342 97.8532 0.166748 86.5832 0.166748ZM53.9166 171.667C47.1382 171.667 41.6666 166.195 41.6666 159.417C41.6666 152.638 47.1382 147.167 53.9166 147.167C60.6949 147.167 66.1666 152.638 66.1666 159.417C66.1666 166.195 60.6949 171.667 53.9166 171.667ZM90.6666 139H17.1666V24.6667H90.6666V139Z" fill="#F2CC8F"/>
</svg>
